<svg width="101" height="101" viewBox="0 0 101 101" fill="none" xmlns="http://www.w3.org/2000/svg">
<path d="M8.63477 50.3013C8.63437 56.8436 10.1746 63.2941 13.1306 69.1305C16.0867 74.9669 20.3756 80.0251 25.6501 83.8958C30.9245 87.7664 37.0364 90.3407 43.4907 91.4101C49.945 92.4795 56.5605 92.014 62.8014 90.0513C54.3414 87.3926 46.9502 82.1041 41.7031 74.955C36.456 67.8059 33.6267 59.1692 33.6267 50.3013C33.6267 41.4333 36.456 32.7966 41.7031 25.6475C46.9502 18.4985 54.3414 13.2099 62.8014 10.5513C56.5605 8.58857 49.945 8.12308 43.4907 9.19247C37.0364 10.2619 30.9245 12.8361 25.6501 16.7067C20.3756 20.5774 16.0867 25.6357 13.1306 31.4721C10.1746 37.3085 8.63437 43.759 8.63477 50.3013Z" fill="#C4164B"/>
</svg>
